<?xml version="1.0" encoding="UTF-8" standalone="no"?>
<!DOCTYPE svg PUBLIC "-//W3C//DTD SVG 1.1//EN" "http://www.w3.org/Graphics/SVG/1.1/DTD/svg11.dtd">
<svg width="100%" height="100%" viewBox="0 0 2287 3400" version="1.1" xmlns="http://www.w3.org/2000/svg" xmlns:xlink="http://www.w3.org/1999/xlink" xml:space="preserve" xmlns:serif="http://www.serif.com/" style="fill-rule:evenodd;clip-rule:evenodd;stroke-linecap:round;stroke-linejoin:round;stroke-miterlimit:1.5;">
    <g transform="matrix(1,0,0,1,-1468.19,-711.94)">
        <path d="M3007.25,4110.67L3007.25,3306.98C3085.44,2617.03 3753.69,2288.1 3753.69,1657.9C3753.69,893.14 3124.45,703.196 2593.54,712.78C1946.68,724.458 1468.68,1185.7 1468.68,1753.35C1468.68,2221.67 2156.45,2638.6 2289.2,3300.39L2289.2,4104.08C2521.57,4110.45 2763.22,4092.09 3014,4049.36C3016.75,4048.89 3018.68,4046.39 3018.44,4043.61C3018.19,4040.83 3015.86,4038.7 3013.07,4038.7C2741.95,4039.29 2504.88,4020.01 2294.75,3985.02C2292.28,3984.59 2290.56,3982.32 2290.82,3979.83C2291.08,3977.33 2293.23,3975.46 2295.74,3975.55C2532.26,3983.11 2768.78,3961.51 3005.3,3907.88C3008.37,3907.18 3010.39,3904.25 3009.99,3901.13C3009.58,3898.01 3006.86,3895.71 3003.72,3895.81C2786.99,3901.16 2547.85,3872.91 2290.68,3817.59C2287.46,3816.89 2285.31,3813.84 2285.73,3810.57C2286.16,3807.3 2289.02,3804.91 2292.31,3805.06C2530.2,3815.03 2770.37,3800.04 3013.37,3753.76C3015.92,3753.27 3017.67,3750.9 3017.39,3748.31C3017.1,3745.73 3014.88,3743.79 3012.28,3743.86C2718.33,3752.05 2482.64,3729.73 2294.54,3682.47C2292.56,3681.94 2291.34,3679.94 2291.77,3677.93C2292.2,3675.91 2294.12,3674.59 2296.16,3674.91C2595.43,3721.73 2847.24,3718.94 3007.25,3620.17" style="fill:none;stroke:black;stroke-width:1px;"/>
    </g>
</svg>
